<svg id="Capa_1" enable-background="new 0 0 512 512" height="512" viewBox="0 0 512 512" width="512" xmlns="http://www.w3.org/2000/svg"><g><g><path d="m472.92 337.658c1.74-7.244 2.535-14.855 2.217-22.705-1.805-44.574-39.195-79.447-83.805-79.447h-135.332-135.332c-44.609 0-81.998 34.871-83.805 79.443-.318 7.852.476 15.464 2.217 22.709 1.131 4.708.534 9.65-1.672 13.96-10.03 19.6-28.366 66.139-29.817 146.424-.101 5.601 4.4 10.207 10.001 10.207h238.408 238.407c5.601 0 10.102-4.607 10.001-10.207-1.45-80.285-19.786-126.824-29.817-146.424-2.205-4.309-2.802-9.252-1.671-13.96z" fill="#407093"/></g><g><path d="m472.918 337.664c1.741-7.246 2.536-14.858 2.218-22.71-1.803-44.574-39.195-79.448-83.805-79.448h-135.331-135.332c-8.979 0-17.656 1.434-25.818 4.054 7.912 42.819 20.835 62.332 22.876 65.209 4.634 6.529 12.066 10.215 19.774 10.215 1.346 0 2.7-.112 4.049-.342 7.418 14.138 15.647 22.324 17.262 23.858 4.344 4.126 9.95 6.405 15.701 6.639 9.795 17.99 22.95 29.991 25.225 31.995 4.561 4.012 10.281 6.043 16.021 6.043.879 0 1.758-.047 2.634-.143 15.869 15.607 31.546 18.51 34.012 18.88 1.193.179 2.394.268 3.597.268s2.404-.09 3.597-.268c2.466-.37 18.143-3.273 34.012-18.88.876.096 1.755.143 2.634.143 5.739 0 11.461-2.031 16.021-6.043 2.276-2.004 15.427-14 25.221-31.987 5.753-.237 11.361-2.52 15.706-6.647 1.615-1.534 9.843-9.72 17.261-23.857 1.351.229 2.703.341 4.05.341 7.707-.001 15.142-3.686 19.774-10.215 1.252-1.765 6.6-9.794 12.373-25.623 2.949-8.085 13.974-9.077 18.271-1.621 6.392 11.09 10.27 23.805 10.822 37.428.322 7.963-.5 15.679-2.292 23.017-1.1 4.503-.52 9.241 1.601 13.364 10.412 20.237 30.055 69.941 30.055 156.917h29.304c5.601 0 10.102-4.607 10.001-10.207-1.45-80.293-19.79-126.833-29.82-146.43-2.207-4.307-2.804-9.246-1.674-13.95z" fill="#365e7d"/></g><g><path d="m256 11.25c115.605 0 143.991 115.529 150.348 155.441.284 1.781-1.743 2.999-3.181 1.912l-4.068-3.075c0 62.91-11.87 98.842-19.118 114.917-1.474 3.27-6.142 3.068-7.394-.293-4.178-11.219-13.734-17.362-13.734-17.362 0 24.918-10.2 42.696-16.822 51.612-1.827 2.461-5.681 2.04-6.859-.79-3.176-7.63-10.976-8.339-10.976-8.339 0 18.903-11.821 35.915-20.087 45.501-2.11 2.446-6.154 1.498-6.891-1.647-1.15-4.905-4.324-8.079-4.324-8.079-12.792 29.521-31.648 35.656-35.982 36.702-.601.145-1.22.145-1.822 0-4.334-1.046-23.189-7.181-35.982-36.702 0 0-3.175 3.175-4.324 8.08-.737 3.145-4.781 4.093-6.891 1.647-8.266-9.586-20.087-26.598-20.087-45.501 0 0-7.8.709-10.976 8.339-1.178 2.83-5.031 3.251-6.859.79-6.621-8.915-16.822-26.693-16.822-51.612 0 0-9.555 6.143-13.734 17.362-1.252 3.361-5.92 3.563-7.394.293-7.248-16.075-19.118-52.007-19.118-114.917l-4.068 3.075c-1.438 1.087-3.465-.132-3.181-1.912 6.355-39.913 34.741-155.442 150.346-155.442z" fill="#4a80aa"/></g><g><path d="m256 11.25c-6.039 0-11.835.322-17.407.926 102.892 11.14 127.806 120.472 133.242 156.464.326 2.159-2.511 3.235-3.725 1.42-.038-.057-.077-.114-.115-.171-1.129-1.666-3.719-.897-3.741 1.115-.742 66.565-14.896 101.597-21.375 114.201-.885 1.722-3.418 1.344-3.81-.552-1.931-9.351-7.937-15.931-11.747-19.292-1.289-1.137-3.297-.258-3.374 1.459-1.159 25.99-13.275 43.587-19.132 50.641-1.09 1.313-3.211.782-3.556-.89-1.432-6.925-6.211-9.636-9.253-10.676-1.278-.437-2.619.459-2.69 1.808-1.073 20.308-15.264 38.113-22.976 46.359-1.25 1.336-3.539.469-3.529-1.361.02-3.65-1.312-6.707-2.569-8.773-.839-1.379-2.88-1.237-3.572.221-5.593 11.801-12.141 19.522-18.079 24.557 7.562 6.413 14.135 8.469 16.486 9.038.607.147 1.231.148 1.838.001 4.345-1.05 23.189-7.193 35.976-36.701 0 0 3.173 3.173 4.323 8.075.739 3.147 4.784 4.096 6.895 1.648 8.266-9.586 20.085-26.597 20.085-45.498 0 0 7.796.709 10.973 8.333 1.18 2.832 5.036 3.254 6.865.791 6.622-8.917 16.818-26.693 16.818-51.606 0 0 9.551 6.14 13.731 17.355 1.254 3.364 5.925 3.566 7.4.294 7.248-16.079 19.115-52.009 19.115-114.91l4.068 3.076c1.438 1.087 3.465-.131 3.181-1.912-6.355-39.91-34.74-155.44-150.346-155.44z" fill="#407093"/></g><g><g><circle cx="325.701" cy="170.856" fill="#dd636e" r="40.407"/></g><g><path d="m343.696 134.678c2.701 5.42 4.229 11.528 4.229 17.995 0 22.316-18.091 40.407-40.407 40.407-6.467 0-12.575-1.528-17.995-4.229 6.62 13.282 20.329 22.412 36.178 22.412 22.316 0 40.406-18.091 40.406-40.406.001-15.85-9.129-29.559-22.411-36.179z" fill="#da4a54"/></g></g><g><g><circle cx="186.299" cy="170.856" fill="#dd636e" r="40.407"/></g><g><path d="m204.294 134.678c2.701 5.42 4.229 11.528 4.229 17.995 0 22.316-18.091 40.407-40.406 40.407-6.467 0-12.575-1.528-17.995-4.229 6.62 13.282 20.329 22.412 36.178 22.412 22.316 0 40.407-18.091 40.407-40.406-.002-15.85-9.131-29.559-22.413-36.179z" fill="#da4a54"/></g></g><g><path d="m316.224 483.146-3.636 4.935c-2.394 3.25-6.191 5.169-10.228 5.169h-26.157c-7.016 0-12.703-5.687-12.703-12.703v-7.808c0-4.107-3.165-7.688-7.27-7.811-4.247-.127-7.73 3.278-7.73 7.497v8.122c0 7.016-5.687 12.703-12.703 12.703h-26.157c-4.036 0-7.832-1.918-10.226-5.168l-3.637-4.936c-2.457-3.335-7.153-4.046-10.487-1.589-3.335 2.457-4.046 7.152-1.589 10.487l3.637 4.936c5.199 7.058 13.537 11.271 22.303 11.271h26.157c7.962 0 15.145-3.381 20.203-8.777 5.058 5.396 12.241 8.777 20.203 8.777h26.157c8.803 0 17.082-4.184 22.304-11.271l3.636-4.936c2.457-3.335 1.746-8.03-1.589-10.487-3.336-2.457-8.031-1.746-10.488 1.589z" fill="#365e7d"/></g><g><path d="m411.964 468.604c.03-.051.067-.096.096-.148 1.297-2.336 3.445-4.895 5.72-7.604 5.522-6.577 12.396-14.764 12.396-26.345 0-4.143-3.357-7.5-7.5-7.5s-7.5 3.357-7.5 7.5c0 6.118-4.315 11.258-8.884 16.699-.804.958-1.615 1.927-2.412 2.912-19.732-17.61-20.169-46.499-20.172-46.902-.001-.417-.044-.823-.111-1.222l6.265-11.722c7.512 3.492 13.214 4.936 13.863 5.094.597.146 1.193.216 1.781.216 3.37 0 6.427-2.291 7.27-5.71.989-4.015-1.467-8.075-5.479-9.074-.368-.092-36.874-9.521-42.919-40.616-.789-4.064-4.721-6.718-8.794-5.931-4.065.791-6.721 4.728-5.931 8.794 3.722 19.143 15.53 31.76 27.171 39.8l-17.028 31.859c-5.734 10.729-16.855 17.395-29.021 17.395h-46.492c-11.46 0-20.784-9.324-20.784-20.784v-8.082c0-4.143-3.357-7.5-7.5-7.5s-7.5 3.357-7.5 7.5v8.082c0 11.46-9.324 20.784-20.784 20.784h-46.492c-12.166 0-23.287-6.665-29.021-17.395l-17.028-31.859c11.642-8.04 23.449-20.657 27.171-39.8.79-4.066-1.865-8.003-5.931-8.794-4.063-.788-8.004 1.866-8.794 5.931-6.045 31.095-42.551 40.524-42.919 40.616-4.015.988-6.473 5.041-5.492 9.06.836 3.427 3.902 5.725 7.28 5.725.588 0 1.187-.07 1.783-.216.649-.158 6.351-1.603 13.863-5.094l6.269 11.727c-.067.396-.111.8-.113 1.215-.002.317-.409 29.267-20.172 46.904-.798-.985-1.608-1.954-2.412-2.912-4.568-5.441-8.884-10.581-8.884-16.699 0-4.143-3.357-7.5-7.5-7.5s-7.5 3.357-7.5 7.5c0 11.581 6.874 19.768 12.396 26.345 2.274 2.709 4.423 5.268 5.72 7.604.028.051.064.094.093.143.06.102.113.206.177.306.14.214 13.938 21.661 13.938 39.345h15c0-15.769-7.938-32.625-12.766-41.42 13.846-11.436 20.56-26.68 23.823-38.899 6.124 10.166 15.683 17.555 26.741 20.999-8.694 11.862-20.474 32.815-20.474 59.32h15c0-28.778 17.111-50.522 22.998-57.15h43.244c11.494 0 21.733-5.453 28.284-13.902 6.552 8.449 16.79 13.902 28.284 13.902h43.244c5.886 6.627 22.999 28.37 22.999 57.15h15c0-26.504-11.78-47.458-20.474-59.32 11.058-3.444 20.617-10.833 26.741-20.999 3.263 12.219 9.978 27.463 23.823 38.899-4.828 8.795-12.766 25.651-12.766 41.42h15c0-17.684 13.799-39.131 13.935-39.34.068-.101.122-.205.181-.307z" fill="#365e7d"/></g><g><path d="m272.174 131.918c-.624 0-1.259-.078-1.892-.241-4.011-1.035-6.416-5.151-5.381-9.162 3.297-12.777 18.98-36.941 54.739-36.941 36.78 0 74.181-11.033 93.063-27.454l1.947-1.694c24.101-20.977 60.52-52.676 89.85-52.676 4.143 0 7.5 3.357 7.5 7.5s-3.357 7.5-7.5 7.5c-23.717 0-58.95 30.667-80.001 48.989l-1.952 1.698c-21.75 18.914-62.143 31.136-102.906 31.136-32.807 0-39.941 24.689-40.229 25.741-.872 3.377-3.906 5.604-7.238 5.604z" fill="#dddaec"/></g><g><path d="m239.832 131.891c-3.324 0-6.358-2.227-7.246-5.585-.321-1.166-7.502-25.732-40.227-25.732-40.764 0-81.156-12.222-102.907-31.136l-1.951-1.698c-21.051-18.323-56.284-48.99-80.001-48.99-4.143 0-7.5-3.357-7.5-7.5s3.357-7.5 7.5-7.5c29.33 0 65.749 31.699 89.849 52.675l1.946 1.694c18.884 16.421 56.284 27.454 93.064 27.454 35.759 0 51.442 24.164 54.739 36.941 1.035 4.011-1.377 8.102-5.388 9.136-.627.162-1.258.241-1.878.241z" fill="#dddaec"/></g><g><path d="m311.559 279.372c-4.143 0-7.5-3.357-7.5-7.5 0-6.654-1.404-12.816-2.873-17.442l-4.319 3.239c-3.312 2.485-8.014 1.813-10.5-1.5-2.485-3.313-1.813-8.015 1.5-10.5l12.122-9.092c1.748-1.312 3.981-1.796 6.112-1.324 2.134.469 3.956 1.846 4.991 3.769.325.604 7.967 15.002 7.967 32.851 0 4.142-3.358 7.499-7.5 7.499z" fill="#ffd064"/></g><g><path d="m200.441 279.372c-4.143 0-7.5-3.357-7.5-7.5 0-17.849 7.642-32.246 7.967-32.851 1.035-1.923 2.857-3.3 4.991-3.769 2.134-.473 4.365.014 6.112 1.324l12.122 9.092c3.313 2.485 3.985 7.187 1.5 10.5s-7.185 3.985-10.5 1.5l-4.324-3.243c-1.468 4.617-2.868 10.773-2.868 17.446 0 4.144-3.357 7.501-7.5 7.501z" fill="#ffd064"/></g></g></svg>