<svg height="512pt" viewBox="0 0 512 512" width="512pt" xmlns="http://www.w3.org/2000/svg" xmlns:xlink="http://www.w3.org/1999/xlink"><linearGradient id="a" gradientTransform="matrix(1 0 0 -1 0 -14274)" gradientUnits="userSpaceOnUse" x1="0" x2="512" y1="-14530" y2="-14530"><stop offset="0" stop-color="#31d8ff"/><stop offset="1" stop-color="#ff80ff"/></linearGradient><path d="m512 256c0 141.386719-114.613281 256-256 256s-256-114.613281-256-256 114.613281-256 256-256 256 114.613281 256 256zm0 0" fill="url(#a)"/><path d="m426.914062 383.789062-157.5-315c-.035156-.070312-.078124-.140624-.117187-.214843-.078125-.152344-.160156-.300781-.246094-.449219-.148437-.265625-.308593-.527344-.472656-.78125-.0625-.097656-.125-.199219-.191406-.300781-.238281-.347657-.492188-.683594-.753907-1.011719-.066406-.078125-.132812-.152344-.199218-.230469-.222656-.261719-.453125-.515625-.691406-.761719-.082032-.082031-.160157-.160156-.238282-.242187-.308594-.300781-.625-.59375-.957031-.867187-.011719-.011719-.027344-.023438-.042969-.035157-.3125-.253906-.636718-.496093-.96875-.722656-.117187-.082031-.234375-.15625-.351562-.234375-.253906-.167969-.519532-.328125-.785156-.476562-.117188-.066407-.226563-.136719-.34375-.199219-.351563-.1875-.710938-.359375-1.078126-.519531-.144531-.0625-.289062-.117188-.4375-.175782-.261718-.101562-.523437-.199218-.789062-.289062-.152344-.050782-.308594-.101563-.464844-.148438-.390625-.117187-.785156-.222656-1.1875-.308594-.105468-.019531-.210937-.035156-.316406-.054687-.339844-.0625-.683594-.117187-1.03125-.15625-.132812-.015625-.265625-.03125-.398438-.042969-.445312-.039062-.894531-.066406-1.351562-.066406-.453125 0-.902344.027344-1.351562.066406-.132813.011719-.265626.027344-.394532.042969-.347656.039063-.691406.09375-1.03125.15625-.109375.019531-.214844.035156-.320312.054687-.398438.085938-.796875.191407-1.183594.308594-.160156.046875-.3125.097656-.464844.148438-.269531.089844-.53125.1875-.789062.289062-.148438.058594-.296875.113282-.441406.175782-.363282.160156-.722657.332031-1.074219.519531-.117188.0625-.230469.132812-.347657.199219-.265624.148437-.527343.308593-.785156.472656-.117187.078125-.234375.15625-.347656.234375-.332031.230469-.65625.46875-.96875.722656-.015625.011719-.03125.023437-.046875.039063-.332031.273437-.648437.5625-.953125.867187-.082031.078125-.160156.160156-.242188.242187-.238281.246094-.46875.5-.691406.761719-.066406.078125-.132812.152344-.195312.230469-.265625.324219-.519532.664062-.757813 1.011719-.066406.097656-.125.195312-.1875.292969-.167969.257812-.328125.523437-.480469.792968-.082031.144532-.164062.289063-.238281.4375-.039062.074219-.085937.148438-.121093.222656l-157.5 315c-2.703126 5.402344-1.902344 11.898438 2.03125 16.480469 3.9375 4.582031 10.234374 6.359375 15.980468 4.507813l152.902344-49.242188 152.902344 49.242188c1.511718.484375 3.0625.722656 4.59375.722656 4.304687 0 8.484375-1.855469 11.386718-5.230469 3.933594-4.582031 4.734376-11.078125 2.03125-16.480469zm-185.914062-244.75v189.8125l-113.121094 36.425782zm30 189.8125v-189.8125l113.117188 226.238282zm0 0" fill="#fff"/></svg>